<svg width="24" height="24" fill="none" xmlns="http://www.w3.org/2000/svg">
  <path opacity=".3" d="M15.008 11.991a11.919 11.919 0 006.83 2.144c-4.247 0-7.703 3.456-7.703 7.703 0-2.536-.795-4.89-2.144-6.83a12.101 12.101 0 013.017-3.017zm-6.034 0a11.92 11.92 0 01-6.83 2.144c4.248 0 7.704 3.456 7.704 7.703 0-2.536.794-4.89 2.143-6.83a12.1 12.1 0 00-3.017-3.017zm3.017-3.017a11.92 11.92 0 01-2.143-6.83c0 4.248-3.456 7.704-7.704 7.704 2.537 0 4.89.794 6.83 2.143a12.1 12.1 0 003.017-3.017zm3.017 3.017a11.92 11.92 0 016.83-2.143c-4.247 0-7.703-3.456-7.703-7.704 0 2.537-.795 4.89-2.144 6.83a12.1 12.1 0 003.017 3.017z" fill="#738FFC" style="--darkreader-inline-fill: #6babfc;" data-darkreader-inline-fill=""></path>
  <path d="M2.143 9.848a2.143 2.143 0 100 4.287c2.537 0 4.891-.794 6.83-2.144a11.919 11.919 0 00-6.83-2.143zM9.848 21.84a2.143 2.143 0 104.287 0c0-2.538-.795-4.892-2.144-6.831a11.919 11.919 0 00-2.143 6.83zM21.84 9.848c-2.538 0-4.892.794-6.831 2.143a11.92 11.92 0 006.83 2.144 2.143 2.143 0 100-4.287zM14.135 2.143a2.143 2.143 0 10-4.287 0c0 2.537.794 4.891 2.143 6.83a11.919 11.919 0 002.144-6.83z" fill="#738FFC" style="--darkreader-inline-fill: #6babfc;" data-darkreader-inline-fill=""></path>
</svg>
